<?xml version="1.0" encoding="UTF-8" standalone="no"?>
<svg
   width="1518.9336"
   height="535.00781"
   viewBox="0 0 1518.9336 535.00781"
   version="1.1"
   xml:space="preserve"
   style="clip-rule:evenodd;fill-rule:evenodd;stroke-linejoin:round;stroke-miterlimit:2"
   id="svg31"
   sodipodi:docname="Skott.svg"
   inkscape:version="1.3.1 (91b66b0783, 2023-11-16)"
   xmlns:inkscape="http://www.inkscape.org/namespaces/inkscape"
   xmlns:sodipodi="http://sodipodi.sourceforge.net/DTD/sodipodi-0.dtd"
   xmlns="http://www.w3.org/2000/svg"
   xmlns:svg="http://www.w3.org/2000/svg"><defs
   id="defs31" /><sodipodi:namedview
   id="namedview31"
   pagecolor="#ffffff"
   bordercolor="#000000"
   borderopacity="0.25"
   inkscape:showpageshadow="2"
   inkscape:pageopacity="0.0"
   inkscape:pagecheckerboard="0"
   inkscape:deskcolor="#d1d1d1"
   inkscape:zoom="0.38533333"
   inkscape:cx="1375.4325"
   inkscape:cy="-228.3737"
   inkscape:window-width="2560"
   inkscape:window-height="1361"
   inkscape:window-x="-9"
   inkscape:window-y="-9"
   inkscape:window-maximized="1"
   inkscape:current-layer="svg31" />
    
    
    
    <g
   id="g31"
   transform="translate(-125.84782,-1727.1618)"><g
     transform="matrix(0.895068,0,0,0.897758,-361.257,1020.76)"
     id="g6">
        <path
   d="m 676.994,1362.94 c -31.797,0.13 -73.146,-13.49 -94.608,-35.18 -21.462,-21.69 -30.352,-71.15 -34.163,-94.96 -2.044,-12.77 -7.625,-35 2.106,-38.74 7.042,-2.71 23.384,-1.03 41.499,-1.98 16.747,-0.87 35.428,-4.76 39.817,1.98 8.128,12.47 -5.095,27.72 7.849,60.69 6.584,16.77 25.125,27.09 36.718,30 11.36,2.86 25.443,-3.42 32.839,-12.51 7.428,-9.12 12.286,-27.62 11.729,-42.22 -0.652,-17.07 -5.037,-42.38 -15.638,-60.2 -12.25,-20.59 -38.8,-42.02 -57.86,-63.34 -22.023,-24.62 -58.38,-56.03 -74.279,-84.44 -14.416,-25.76 -22.967,-56.545 -21.111,-86.006 1.955,-31.015 11.468,-77.407 32.84,-100.082 21.371,-22.674 63.984,-35.966 95.39,-35.966 31.405,0 72.194,13.031 93.044,35.966 20.85,22.936 27.462,80.776 32.057,101.645 1.72,7.812 3.197,21.35 -4.487,23.572 -5.319,1.538 -23.205,-1.987 -35.329,-2.13 -15.702,-0.184 -26.197,2.469 -33.423,-0.263 -8.683,-3.283 -5.552,-17.719 -8.077,-26.652 -3.17,-11.218 -1.322,-31.251 -10.946,-40.658 -9.625,-9.406 -33.641,-18.308 -46.8,-15.781 -13.158,2.527 -30.46,16.166 -32.15,30.944 -2.104,18.398 6.498,55.779 19.526,79.445 13.028,23.666 39.529,41.306 58.642,62.546 22.153,24.63 58.511,56.04 74.279,85.23 14.604,27.04 22.439,59.26 20.329,89.92 -2.215,32.18 -11.989,80.01 -33.621,103.21 -21.632,23.19 -64.375,35.83 -96.172,35.96 z"
   style="fill:#dfcaa2;fill-rule:nonzero;stroke:#dfcaa2;stroke-width:1.12px"
   id="path2" />
        <path
   id="A"
   d="m 856.046,807.804 c 0.087,-11.595 21.793,-7.493 43.55,-5.481 17.283,1.598 37.433,-6.174 42.457,5.481 14.824,34.394 1.779,171.151 2.938,206.356 0.069,2.11 2.4,4.55 4.011,4.89 1.612,0.34 4.738,-0.93 5.658,-2.82 17.086,-35.21 66.38,-173.688 96.86,-208.426 9.78,-11.152 24.33,-5.258 44.18,-5.713 18.52,-0.424 42.78,-8.086 41.82,5.713 -2.25,32.544 -82.76,160.754 -99.53,195.266 -1.72,3.55 -2.15,7.99 -1.06,11.79 11.43,39.78 46.7,148.3 72.69,236.55 12.33,41.91 38.71,87.95 29.47,103.71 -3.93,6.71 -37.32,3.76 -45.48,3.91 -11.38,0.2 -35.74,8.65 -44.44,-3.91 -26.31,-37.99 -55.615,-189.14 -67.944,-227.94 -0.781,-2.46 -3.907,-4.7 -6.026,-4.85 -2.118,-0.17 -5.543,1.58 -6.685,3.89 -4.695,9.52 -19.289,34.2 -21.486,53.2 -4.41,38.15 10.188,146.42 -4.976,175.7 -5.924,11.44 -22.994,4.92 -40.4,6.46 -21.327,1.88 -43.157,9.14 -45.607,-6.46 -0.491,-3.12 -0.949,-6.56 -1.376,-10.3 -8.956,-78.48 -4.198,-288 -0.897,-426.889 1.137,-47.829 2.101,-87.284 2.273,-110.127 z"
   style="fill:#dfcaa2;fill-rule:nonzero;stroke:#dfcaa2;stroke-width:1.12px" />
        <path
   d="m 1407.27,863.318 c -0.15,16.612 8.32,19.615 16.78,60.16 12.32,59.114 4,234.602 -1.92,301.852 -3.13,35.55 -12.82,79.55 -33.62,101.65 -20.81,22.09 -61.91,30.62 -91.21,30.94 -57.04,0.61 -65.71,-17.39 -83.93,-15.31 -12.48,1.43 -15.39,25.73 -25.43,27.82 -5.79,1.2 -9.57,-2.24 -17.4,-5.87 -5.73,-2.66 -16.53,-4.45 -17.38,-9.44 -2.02,-11.8 21.47,-35.56 22.68,-55.51 1.3,-21.63 -13.82,-49.05 -14.86,-74.28 -2.47,-60.33 -5.6,-222.84 0,-287.733 3.07,-35.554 16.23,-78.383 33.62,-101.645 16.02,-21.426 34.66,-31.538 70.73,-37.927 42.35,-7.5 79.5,11.809 93.81,17.459 4.34,1.711 6.21,0.587 8.57,-3.993 4.07,-7.903 7.85,-23.205 15.33,-24.016 6.51,-0.706 14.61,4.651 25.08,9.085 8.5,3.597 20.51,8.033 22.32,13.695 1.61,5.055 -0.98,6.389 -5.49,13.552 -6.75,10.751 -17.54,25.083 -17.68,39.511 z M 1239,1146.51 c 9.57,-2.07 31.51,-52.46 54.13,-107.67 19.74,-48.206 40.7,-100.612 45.13,-120.79 3.76,-17.107 -25.1,-34.974 -42.22,-31.276 -17.92,3.873 -48.82,-0.836 -65.32,54.511 -11.52,38.643 -9.64,209.095 8.28,205.225 z m 108.5,-120.25 c -6.25,-3.41 -19.48,30.09 -25.55,43.43 -24.54,53.89 -66.66,150.99 -72.62,183.79 -1.48,8.15 -2.37,6 2.02,12.84 6.17,9.61 31.83,20.66 40.21,18.43 15.89,-4.21 42.85,-35.64 53.16,-56.56 15.01,-30.45 23.56,-79.4 19.02,-122.11 -5.5,-51.66 -10.23,-76.55 -16.24,-79.82 z"
   style="fill:#dfcaa2;fill-rule:nonzero;stroke:#dfcaa2;stroke-width:1.12px"
   id="path3" />
        <g
   transform="translate(12.7052)"
   id="g4">
            <path
   d="m 1544.1,885.993 c -5.64,-29.437 -74.93,13.031 -89.91,0 -8.45,-7.348 -8.62,-26.058 -8.53,-44.805 0.08,-14.5 -2.38,-30.176 8.53,-33.384 23.14,-6.807 81.61,-2.209 139.41,-1.904 52.83,0.279 105.27,-4.319 126.43,1.904 11.3,3.323 7.39,19.671 7.28,34.345 -0.14,17.804 1.42,34.77 -7.28,43.844 -11,11.467 -59.73,-11.48 -84.43,-7.854 -10.95,1.608 -8.71,19.207 -10.79,28.975 -16.57,77.702 9.29,367.996 -4.19,445.086 -2.2,12.58 -19.93,10.61 -38,11.34 -18.06,0.73 -36.45,4.17 -38.52,-8.42 -12.75,-77.7 14.99,-390.939 0,-469.127 z"
   style="fill:#dfcaa2;fill-rule:nonzero;stroke:#dfcaa2;stroke-width:1.12px"
   id="path4" />
        </g>
        <g
   transform="translate(36.5273)"
   id="g5">
            <path
   d="m 1837.73,899.634 c -1.85,-9.656 -9.1,-10.326 -20.23,-10.856 -23.64,-1.126 -60.56,7.62 -70.89,-2.785 -8.59,-8.655 -7.8,-29.696 -7.63,-48.091 0.14,-14.134 -3.67,-29.407 7.63,-30.098 22.16,-1.353 76.6,1.668 131,2.108 51.61,0.418 103.24,-1.775 125.51,-1.868 12.2,-0.051 17.36,20.46 16.64,36.576 -0.83,18.317 0.43,32.743 -7.31,41.373 -11,12.266 -58.52,-6.737 -80.32,-0.704 -7.03,1.946 -5.59,12.715 -6.96,19.849 -14.99,78.189 12.44,376.472 -2.63,449.982 -5.91,28.82 -82.41,20.01 -87.79,-8.91 -14.14,-75.91 17.66,-369.873 2.98,-446.576 z"
   style="fill:#dfcaa2;fill-rule:nonzero;stroke:#dfcaa2;stroke-width:1.12px"
   id="path5" />
        </g>
    </g><g
     transform="matrix(0.454054,0,0,0.370529,873.033,1442.05)"
     id="g16">
        <path
   d="m 1434.08,2212.17 c -43.01,0 -75.63,-14.7 -97.85,-44.09 -22.22,-29.39 -27.78,-93.54 -33.33,-127.95 -4.17,-25.83 -2.99,-52.5 0,-78.49 3.41,-29.57 6.81,-72.4 20.43,-98.92 13.62,-26.52 70.05,-46.94 66.66,-58.06 -4.22,-13.88 -31.37,-9.54 -53.12,-26.48 -16.22,-12.63 -41.16,-55.58 -47.9,-83.2 -8.47,-34.68 -3.88,-66.41 4.63,-106.86 7.89,-37.5 21.61,-71.51 51,-103.05 29.39,-31.54 94.66,-31.17 140.01,-36.31 43.8,-4.96 133.57,-1.84 139.84,6.8 3.34,4.6 1.16,28.24 1.62,49.19 0.59,26.56 2.56,51.03 -5.98,51.54 -27.5,1.62 -103.32,-5.32 -133.33,0 -18.57,3.28 -36.69,19.69 -46.73,31.88 -9.19,11.16 -11.28,26.94 -13.48,41.23 -2.25,14.58 -2.43,31.02 0,46.23 2.87,17.92 5.38,48.03 17.2,61.29 11.83,13.26 31.08,21.03 47.75,24.08 15.16,2.77 44.81,7.7 52.25,-5.8 6.12,-11.1 -1.45,-36.99 -1.26,-61.18 0.05,-5.73 -2.72,-19.81 1.26,-22.69 3.87,-2.79 9.89,-3.85 17.25,-4.16 11.45,-0.48 67.66,-3.64 82.63,-3.84 8.21,-0.11 17.11,-0.15 17.91,9.02 0.7,8.1 0.51,14.91 -0.13,25.71 -1.23,20.89 -1.07,43.9 0.3,49.66 1.85,7.8 31.37,-2.58 34.65,8.03 2.34,7.55 0.67,21.19 1.04,39.78 0.51,25.54 2.26,44.11 -0.25,57.74 -1.12,6.1 -34.88,-4.65 -37.28,9.45 -6.96,41 -0.36,197.3 0,247.3 0.13,17.58 0,37.45 2.15,52.69 1.87,13.26 23.35,34.17 10.75,38.7 -17.92,6.46 -96.77,9.86 -118.27,0 -18.21,-8.34 -8.6,-49.28 -10.75,-59.13 -0.15,-0.7 -1.67,-0.54 -2.15,0 -7.89,8.78 -27.24,41.03 -45.16,52.68 -17.92,11.65 -37.28,17.21 -62.36,17.21 z m 44.08,-107.53 c 37.27,0 57.36,-37.4 65.59,-67.73 10.93,-40.32 7.53,-145.16 0,-174.19 -3.78,-14.57 -42.91,-13.71 -57.62,-10.52 -17.38,3.76 -33.77,17.15 -46.68,33.1 -12.9,15.95 -15.23,48.21 -18.28,73.11 -3.04,24.91 -2.51,54.66 0,76.35 2.14,18.48 5.02,43 15.06,53.76 10.03,10.75 24.01,16.12 41.93,16.12 z"
   style="fill:#dfcaa2;fill-rule:nonzero;stroke:#dfcaa2;stroke-width:2.41px"
   id="path16" />
    </g></g>
    
</svg>
