<?xml version="1.0" encoding="UTF-8" standalone="no"?>
<svg
   width="2704.8853"
   height="503.99866"
   viewBox="0 0 2704.8853 503.99866"
   version="1.1"
   xml:space="preserve"
   style="clip-rule:evenodd;fill-rule:evenodd;stroke-linejoin:round;stroke-miterlimit:2"
   id="svg31"
   sodipodi:docname="Skydsgaard.svg"
   inkscape:version="1.3.1 (91b66b0783, 2023-11-16)"
   xmlns:inkscape="http://www.inkscape.org/namespaces/inkscape"
   xmlns:sodipodi="http://sodipodi.sourceforge.net/DTD/sodipodi-0.dtd"
   xmlns="http://www.w3.org/2000/svg"
   xmlns:svg="http://www.w3.org/2000/svg"><defs
   id="defs31" /><sodipodi:namedview
   id="namedview31"
   pagecolor="#ffffff"
   bordercolor="#000000"
   borderopacity="0.25"
   inkscape:showpageshadow="2"
   inkscape:pageopacity="0.0"
   inkscape:pagecheckerboard="0"
   inkscape:deskcolor="#d1d1d1"
   showguides="true"
   inkscape:zoom="0.38533333"
   inkscape:cx="1365.0519"
   inkscape:cy="-840.83045"
   inkscape:window-width="2560"
   inkscape:window-height="1361"
   inkscape:window-x="-9"
   inkscape:window-y="-9"
   inkscape:window-maximized="1"
   inkscape:current-layer="svg31"><sodipodi:guide
     position="2122.3042,2999.3538"
     orientation="1,0"
     id="guide31"
     inkscape:locked="false" /></sodipodi:namedview>
    
    
    <g
   transform="matrix(0.881404,0,0,0.884054,-478.81026,-701.41429)"
   id="g15">
        <path
   d="m 676.994,1362.94 c -31.797,0.13 -72.859,-12.5 -94.608,-35.18 -21.749,-22.68 -30.543,-78.61 -35.886,-100.9 -2.567,-10.7 -5.902,-29.06 3.829,-32.8 7.463,-2.88 30.013,-2.04 49.648,-3 16.02,-0.79 30.227,-4.7 31.668,3 2.352,12.57 2.858,40.57 6.318,57.05 5.704,27.18 26.401,30.12 38.249,33.64 11.228,3.34 25.443,-3.42 32.839,-12.51 7.428,-9.12 12.286,-27.62 11.729,-42.22 -0.652,-17.07 -5.037,-42.38 -15.638,-60.2 -12.25,-20.59 -38.8,-42.02 -57.86,-63.34 -22.023,-24.62 -58.38,-56.03 -74.279,-84.44 -14.416,-25.76 -22.967,-56.545 -21.111,-86.006 1.955,-31.015 11.468,-77.407 32.84,-100.082 21.371,-22.674 63.984,-35.966 95.39,-35.966 31.405,0 72.051,12.806 93.044,35.966 20.993,23.16 27.572,82.273 32.915,102.993 1.776,6.889 6.365,19.101 -0.858,21.327 -5.706,1.759 -22.344,0.262 -36.374,0.248 -14.976,-0.015 -27.407,1.316 -34.404,-1.106 -9.215,-3.19 -9.278,-17.62 -10.538,-27.29 -1.718,-13.187 -2.483,-31.367 -10.946,-40.658 -8.464,-9.291 -26.228,-17.913 -39.835,-15.087 -13.607,2.826 -32.161,5.386 -41.807,32.045 -6.313,17.445 8.768,54.329 22.218,77.65 13.477,23.366 39.529,41.306 58.642,62.546 22.153,24.63 58.511,56.04 74.279,85.23 14.604,27.04 22.439,59.26 20.329,89.92 -2.215,32.18 -11.989,80.01 -33.621,103.21 -21.632,23.19 -64.375,35.83 -96.172,35.96 z"
   style="fill:#dfcaa2;fill-rule:nonzero;stroke:#dfcaa2;stroke-width:1.13px"
   id="path6" />
        <path
   d="m 856.046,807.804 c 2.363,-15.039 20.95,-7.801 41.769,-6.652 18.386,1.015 39.039,-5.747 44.238,6.652 4.829,11.52 -0.561,38.465 -0.679,65.32 -0.233,52.854 0.183,116.533 0.679,139.826 0.051,2.39 2.661,5.19 4.484,5.6 1.823,0.42 5.387,-1 6.454,-3.14 17.497,-35.123 67.769,-173.004 98.529,-207.606 8.26,-9.294 24.55,-4.624 41.84,-4.921 25.98,-0.448 43.1,-7.391 44.16,4.921 0.72,8.314 -14.59,25.911 -22.88,43.598 -23.72,50.581 -65.49,126.363 -77.81,152.248 -2.42,5.07 -1.87,12.1 -1.22,17.68 3.99,33.91 12.6,79.84 39.77,157.68 20.91,59.91 62.87,151.56 63.71,176.11 0.3,8.87 -8,6.18 -18.7,5.65 -12.58,-0.62 -28.81,0.03 -43.33,0.67 -14.87,0.66 -21.85,2.49 -27.89,-6.32 -26.48,-38.58 -56.757,-192.3 -69.001,-231.49 -0.572,-1.83 -2.884,-3.49 -4.463,-3.63 -1.579,-0.13 -4.082,1.15 -5.011,2.83 -5.609,10.12 -26.006,36.55 -28.642,57.93 -4.774,38.72 14.334,145.3 0,174.36 -5.911,11.99 -10.563,6.09 -28.673,7.24 -11.588,0.74 -29.467,-1.37 -41.561,-2.06 -9.563,-0.54 -14.724,1.5 -15.773,-5.18 -9.582,-60.97 0.703,-174.51 3.93,-316.56 1.601,-70.474 -8.683,-200.509 -3.93,-230.756 z"
   style="fill:#dfcaa2;fill-rule:nonzero;stroke:#dfcaa2;stroke-width:1.13px"
   id="path7" />
        <path
   d="m 1258.72,1122.12 c -11.11,-47.77 -48.33,-154.705 -74.83,-227.38 -16.77,-46.004 -28.36,-66.629 -29.16,-86.936 -0.35,-8.791 5.59,-7.639 14.85,-7.8 12.92,-0.224 32.09,0.667 50.7,1.336 11.88,0.427 20.7,-0.531 25.93,6.464 4.88,6.544 9.72,52.072 14.41,64.788 19.31,52.365 36.15,109.21 44.23,136.158 0.15,0.5 1.41,0.5 1.56,0 6.73,-22.46 23.5,-85.615 38.76,-137.84 7.5,-25.653 12.07,-52.074 19.88,-63.106 5.33,-7.516 14.14,-4.506 26.96,-5.294 16.15,-0.994 21.23,-1 34.9,-0.975 7.57,0.014 24.03,-0.024 21.8,6.269 -7.05,19.935 -17.61,47.592 -30.05,81.575 -26.89,73.463 -62.09,170.371 -73.94,232.741 -1.83,9.66 -0.87,20.18 -1.49,30.92 -3.18,55.02 -2.35,113.89 -2.48,158.12 -0.04,15.38 7.2,35.21 3.97,43.96 -3.38,9.17 -14.86,3.39 -27.2,3.58 -11.76,0.18 -24.64,-1.58 -35.72,-1.04 -10.77,0.53 -24.33,0.56 -24.04,-8.76 0.59,-18.78 3.16,-38.84 5.82,-72.98 3.85,-49.21 6.75,-103.84 -4.86,-153.8 z"
   style="fill:#dfcaa2;fill-rule:nonzero;stroke:#dfcaa2;stroke-width:1.13px"
   id="path8" />
        <path
   d="m 1487.81,807.804 c 0.68,-6.919 12.27,-6.575 28.43,-6.849 30.46,-0.517 78.15,3.104 102.92,6.849 33.67,5.091 74.81,11.859 96.18,34.403 21.37,22.545 29.07,65.712 32.05,100.863 5.35,62.94 5.35,213.85 0,276.79 -2.98,35.15 -10.68,78.32 -32.05,100.86 -21.37,22.55 -62.51,29.31 -96.18,34.4 -30.72,4.65 -75.11,6.29 -116.32,6.46 -7.1,0.03 -19.2,-4.09 -19.05,-12.39 0.86,-48.61 -1.49,-171.17 -1.44,-282.68 0.05,-114.02 1.02,-213.508 5.46,-258.706 z m 131.02,472.046 c 11.33,-1.87 23.88,-6.27 30.83,-15.43 7.09,-9.34 11.22,-26.56 11.73,-40.65 1.95,-54.21 1.95,-230.398 0,-284.609 -0.51,-14.096 -4.18,-30.801 -11.73,-40.658 -7.55,-9.857 -20.98,-16.404 -33.59,-18.483 -12.64,-2.085 -40.75,-8.172 -42.25,5.973 -7.05,66.152 -7.51,325.297 0,390.937 1.7,14.94 32.37,5 45.01,2.92 z"
   style="fill:#dfcaa2;fill-rule:nonzero;stroke:#dfcaa2;stroke-width:1.13px"
   id="path9" />
        <path
   d="m 1919.46,1354.57 c -31.7,0.87 -75.49,-5.27 -97.01,-26.81 -21.51,-21.54 -26.71,-80.15 -32.05,-102.43 -2.43,-10.14 -9.73,-27.53 0,-31.27 6.74,-2.6 24.13,-0.27 40.98,-0.41 17.03,-0.15 34.33,-4.09 40.33,0.41 4.5,3.36 3.55,14.95 4.47,23.1 1.41,12.45 3.61,22.86 8.1,30.58 8.19,14.1 20.84,33.23 32,37.01 11.16,3.79 27.51,-5.18 34.93,-14.3 7.43,-9.12 10.46,-26.6 9.64,-40.43 -1,-16.77 -5.04,-42.38 -15.64,-60.2 -12.25,-20.59 -38.8,-42.02 -57.86,-63.34 -22.02,-24.62 -58.38,-56.03 -74.28,-84.44 -14.41,-25.76 -22.96,-56.545 -21.11,-86.006 1.96,-31.015 12.62,-77.208 32.84,-100.082 20.22,-22.873 57.7,-35.629 88.5,-37.16 30.8,-1.532 74.27,12.494 96.3,27.971 20.22,14.207 29.93,42.634 35.88,64.886 5.91,22.098 7.09,66.593 -0.19,68.623 -8.02,2.236 -24.1,1.179 -43.69,0.929 -13.52,-0.173 -31.82,1.442 -37.62,-0.929 -3.31,-1.35 -2.12,-10.926 -2.86,-14.336 -1.67,-7.76 -1.32,-12.391 -1.17,-20.513 0.48,-24.837 -6.45,-39.93 -17.26,-46.401 -10.8,-6.471 -30.65,-7.364 -47.56,7.576 -10.58,9.338 -16.92,28.234 -17.16,43.962 -0.25,16.58 5.74,39.033 15.64,55.514 12.38,20.616 38.36,46.096 58.64,68.156 20.76,22.59 50.11,40.2 65.9,67.36 15.97,27.45 30.82,63.91 29.9,97.39 -0.92,33.48 -13.98,80.91 -35.41,103.51 -21.44,22.6 -61.49,31.2 -93.18,32.08 z"
   style="fill:#dfcaa2;fill-rule:nonzero;stroke:#dfcaa2;stroke-width:1.13px"
   id="path10" />
        <path
   d="m 2218.09,1362.94 c -31.8,0 -74.02,-12.25 -95.39,-35.18 -21.37,-22.94 -29.83,-66.7 -32.84,-102.43 -5.47,-65.03 -5.47,-222.84 0,-287.733 2.99,-35.48 11.47,-78.709 32.84,-101.645 21.37,-22.935 63.59,-35.966 95.39,-35.966 31.8,0 74.81,18.034 95.39,35.966 19.33,16.848 22.62,46.866 28.09,71.626 1.84,8.349 6.49,51.882 7.41,61.333 0.76,7.832 1.74,16.076 -5.27,17.131 -10.9,1.64 -16.71,1.491 -39.81,0.767 -10.05,-0.315 -34.25,0.831 -38.9,-2.299 -5.09,-3.425 -2,-14.882 -2.65,-22.249 -1.21,-13.66 -2.57,-25.954 -3.17,-36.417 -1.11,-19.184 -8.18,-47.839 -38.75,-47.67 -34.67,0.192 -41.65,30.808 -44.56,53.95 -7.43,58.902 -7.43,240.686 0,299.466 2.9,22.94 2.48,53.42 44.56,53.16 32.2,-0.19 38.38,-30.88 44.57,-53.16 7.43,-26.72 7.4,-88.32 0,-107.12 -5.46,-13.88 -35.5,-2.72 -44.38,-5.67 -4.73,-1.57 -3.86,-34.75 -3.94,-51.55 -0.07,-14.85 -0.22,-18.98 5.32,-20.97 14.9,-5.37 36.87,-8.17 68.43,-6.86 16.63,0.7 49.54,-3.95 55.89,6.86 15.93,27.15 5.47,132.14 0,179.05 -4.16,35.61 -11.47,79.49 -32.84,102.43 -21.37,22.93 -63.59,35.18 -95.39,35.18 z"
   style="fill:#dfcaa2;fill-rule:nonzero;stroke:#dfcaa2;stroke-width:1.13px"
   id="path11" />
        <path
   d="m 2468.29,807.804 c 6.63,-10.555 29.92,-6.624 55.47,-6.739 25.87,-0.116 58.45,-1.443 61.03,6.739 4.81,15.212 9.36,45.928 15.41,73.233 28.18,127.213 66.63,351.653 72.77,449.703 0.59,9.47 6.75,20.99 0.96,24.38 -4.14,2.43 -17.66,0.65 -28.63,1.77 -10.55,1.08 -18.96,2.48 -30.98,1.93 -12.83,-0.6 -24.06,4.06 -26.4,-3.7 -8.13,-26.92 -11.23,-89.7 -15.64,-108.68 -0.9,-3.88 -6.79,-5.24 -10.78,-5.17 -14.35,0.23 -48.81,-2.09 -73.91,0.61 -3.26,0.35 -11.91,0.48 -13.04,3.31 -4.11,10.27 0.26,91.61 -15.64,109.93 -7.94,9.15 -14.31,4.87 -32.32,5.16 -18.05,0.29 -47.66,6.87 -47.43,-5.16 0.62,-32.71 14.49,-99.83 25.43,-175.06 15.63,-107.59 31.49,-233.695 47.16,-316.044 3.73,-19.608 9.88,-45.605 16.54,-56.212 z m 93.83,365.926 c -2.08,-46.03 -31.67,-225.447 -38.32,-270.536 -0.07,-0.515 -1.48,-0.516 -1.56,0 -6.51,45.089 -44.17,225.446 -37.53,270.536 1.88,12.72 21.66,5.87 40.03,5.91 18.47,0.04 37.67,0.45 37.38,-5.91 z"
   style="fill:#dfcaa2;fill-rule:nonzero;stroke:#dfcaa2;stroke-width:1.13px"
   id="path12" />
        <path
   d="m 2785.74,807.804 c 3.98,-10.6 7.18,-12.502 20.96,-11.615 10,0.644 54.87,-2.268 66.32,-2.033 24.95,0.511 22.59,-4.001 29.22,13.648 4.88,13.005 21.86,109.161 41.84,222.376 16.48,93.4 20.47,135.03 31.86,207.27 4.92,31.21 10.98,78.73 15.43,117.67 0.8,6.98 -19.72,3.64 -41.29,3.55 -21.79,-0.09 -31.23,-0.18 -44.71,-3.55 -4.97,-1.24 -7.03,-5.41 -8.5,-24.23 -2.09,-26.99 -5.61,-73.93 -7.14,-84.45 -0.08,-0.51 -0.76,-1.74 -1.53,-1.73 -14.73,0.24 -74.43,1.97 -86.54,1.88 -8.87,-0.06 -9.18,0.64 -11.31,1.96 -2.29,1.42 -3.14,5.97 -3.74,15.25 -1.16,18.05 -3.97,47.27 -7.13,68.41 -1.74,11.58 -1.78,16.21 -2.72,20.45 -1.01,4.55 -9.11,3.28 -17.47,3.09 -15.14,-0.34 -36.02,0.43 -48.19,0.54 -16.13,0.14 -15.34,4.44 -15.13,-7.75 1.57,-91.22 55.49,-449.516 89.77,-540.736 z m 93.82,365.926 c -0.36,-5.07 -1,-11.59 -1.87,-19.27 -7.3,-64.69 -30.5,-210.957 -36.44,-251.266 -0.08,-0.515 -1.49,-0.516 -1.56,0 -5.81,40.168 -30.66,185.696 -38.22,251.286 -0.9,7.75 -0.04,14.33 0.69,19.25 1.23,8.37 8.29,6.2 19.46,5.85 13.29,-0.42 25.72,-1.59 37.28,-1.52 9.99,0.06 21.24,3.64 20.66,-4.33 z"
   style="fill:#dfcaa2;fill-rule:nonzero;stroke:#dfcaa2;stroke-width:1.13px"
   id="path13" />
        <path
   d="m 3029.18,811.251 c 0.37,-7.35 8.23,-9.297 14.38,-9.266 32.46,0.167 80.03,-1.362 110.96,2.948 33.63,4.687 79.86,14.482 102.69,34.147 22.84,19.664 29.56,55.487 34.33,83.839 4.76,28.351 3.71,62.42 -5.75,86.271 -9.38,23.66 -41.95,45.57 -51.01,56.83 -2.35,2.93 -5.76,7.86 -3.37,10.75 6.39,7.73 32.25,14.26 41.68,35.63 8.68,19.68 13.03,53.01 15.4,80.09 2.57,29.38 -0.26,73.76 0,96.17 0.15,12.78 0,27.24 1.56,38.32 1.36,9.64 17,24.9 7.82,28.14 -3.04,1.08 -13.06,0.73 -19.8,1.28 -22.69,1.84 -52.65,-0.93 -67.77,-1.28 -8.6,-0.19 -5.26,-16.48 -6.25,-25.02 -1.31,-11.2 -1.41,-28.14 -1.57,-42.22 -0.26,-23.72 2.09,-74.67 0,-100.08 -1.47,-17.89 -4.56,-40.18 -12.51,-52.39 -7.43,-11.41 -23.3,-18.35 -35.16,-20.82 -11.86,-2.48 -34.75,-3.86 -35.99,5.97 -3.61,28.47 0.13,93.41 -0.12,155.69 -0.09,23.24 6.06,69.05 -0.46,78.3 -2.67,3.8 -33.11,2.27 -52.97,2.34 -19.54,0.06 -31.59,2.9 -32.46,-1.77 -1.33,-7.18 -5.23,-254.82 -5.35,-265.24 -1.52,-141.976 -2.34,-199.799 1.72,-278.629 z m 128.88,235.259 c 11.46,-2.19 23.63,-7.89 30.35,-17.43 7.27,-10.33 11.07,-30.105 13.29,-44.57 2.13,-13.911 1.79,-28.262 0,-42.221 -1.82,-14.205 -4.05,-32.983 -10.95,-43.004 -6.6,-9.59 -15.88,-12.373 -30.44,-17.121 -11.59,-3.78 -38.01,-9.616 -41.49,3.829 -6.91,26.701 -6.54,129.627 0,156.377 3.12,12.78 27.64,6.35 39.24,4.14 z"
   style="fill:#dfcaa2;fill-rule:nonzero;stroke:#dfcaa2;stroke-width:1.13px"
   id="path14" />
        <path
   d="m 3347.91,807.804 c 1.56,-6.494 8.71,-4.787 14.25,-4.835 67.17,-0.576 84.97,-0.024 117.11,4.835 33.66,5.091 74.8,11.859 96.17,34.403 21.37,22.545 29.07,65.712 32.06,100.863 5.34,62.94 5.34,213.85 0,276.79 -2.99,35.15 -13.04,78.83 -32.06,100.86 -19.02,22.03 -48.39,26.2 -82.05,31.29 -32.82,4.97 -55.53,5.7 -115.42,6.92 -4.86,0.1 -28.68,1.92 -30.06,-3.81 -3.97,-16.56 -0.18,-78.43 0.06,-107.26 1.34,-155.77 0.22,-299.856 -1.58,-385.886 -0.83,-40.197 0.68,-50.652 1.52,-54.17 z m 128.12,475.356 c 12.64,-2.09 26.15,-8.84 33.73,-18.74 7.58,-9.89 11.22,-26.56 11.73,-40.65 1.96,-54.21 1.96,-230.398 0,-284.609 -0.51,-14.096 -2.69,-31.056 -11.73,-40.658 -9.03,-9.602 -29.83,-14.867 -42.47,-16.952 -11.07,-1.826 -32.43,-6.74 -33.37,4.442 -1.8,21.249 -3.16,62.563 -3.95,111.01 -1.67,101.797 -0.81,235.087 3.95,279.927 1.49,14.12 29.47,8.31 42.11,6.23 z"
   style="fill:#dfcaa2;fill-rule:nonzero;stroke:#dfcaa2;stroke-width:1.13px"
   id="path15" />
    </g>
    
    
</svg>
