<?xml version="1.0" encoding="UTF-8" standalone="no"?>
<!-- Created with Inkscape (http://www.inkscape.org/) -->

<svg
   width="771.3988mm"
   height="771.3988mm"
   viewBox="0 0 771.3988 771.3988"
   version="1.1"
   id="svg1"
   xml:space="preserve"
   inkscape:version="1.3.1 (91b66b0783, 2023-11-16)"
   sodipodi:docname="Skott_skydsgaard_rund.svg"
   xmlns:inkscape="http://www.inkscape.org/namespaces/inkscape"
   xmlns:sodipodi="http://sodipodi.sourceforge.net/DTD/sodipodi-0.dtd"
   xmlns="http://www.w3.org/2000/svg"
   xmlns:svg="http://www.w3.org/2000/svg"><sodipodi:namedview
     id="namedview1"
     pagecolor="#ffffff"
     bordercolor="#000000"
     borderopacity="0.25"
     inkscape:showpageshadow="2"
     inkscape:pageopacity="0.0"
     inkscape:pagecheckerboard="0"
     inkscape:deskcolor="#d1d1d1"
     inkscape:document-units="mm"
     inkscape:zoom="0.23117635"
     inkscape:cx="-255.21642"
     inkscape:cy="1488.0415"
     inkscape:window-width="2560"
     inkscape:window-height="1361"
     inkscape:window-x="2551"
     inkscape:window-y="-9"
     inkscape:window-maximized="1"
     inkscape:current-layer="layer1" /><defs
     id="defs1" /><g
     inkscape:label="Layer 1"
     inkscape:groupmode="layer"
     id="layer1"
     transform="translate(-328.474,231.19073)"><circle
       style="fill:#dfcaa2;fill-opacity:1;stroke-width:0.290912"
       id="path2"
       cx="714.1734"
       cy="154.50867"
       r="385.6994" /><circle
       style="fill:#d33014;fill-opacity:1;stroke-width:0.267605"
       id="path2-1"
       cx="714.1734"
       cy="154.50867"
       r="354.79767" /><g
       id="bird"
       transform="matrix(0.33174252,0,0,0.33274,-13.552425,-206.79882)"
       style="clip-rule:evenodd;fill-rule:evenodd;stroke-linejoin:round;stroke-miterlimit:2">
        <path
   id="bird_lvl_1"
   d="m 1735.41,1868.6 c 18.29,-10.7 79.02,-58.94 111.93,-84.11 28.75,-22 53.14,-50.75 85.52,-66.93 36.34,-18.16 89.13,-25.82 132.55,-42.04 62.84,-23.48 179.12,-58.47 244.5,-98.83 58.39,-36.04 109.96,-87.44 147.8,-143.31 37.83,-55.86 63.97,-127.13 79.21,-191.91 15.05,-63.96 4.36,-147.6 12.23,-196.76 5.49,-34.31 24.5,-65.062 35,-98.183 11.15,-35.151 23.22,-74.648 31.89,-112.722 8.84,-38.81 18.23,-84.542 21.14,-120.139 2.53,-31.068 -4.69,-62.285 -3.71,-93.441 1.25,-39.589 18.55,-136.429 11.19,-144.092 -7.35,-7.663 -44.37,79.475 -55.32,98.113 -2.9,4.945 -6.67,11.186 -10.38,13.72 -3.29,2.249 -9.55,-1.758 -11.87,1.483 -4.2,5.871 -8.71,23.113 -13.34,33.743 -4.45,10.185 -8.51,20.652 -14.47,30.034 -7.29,11.495 -23.17,32.322 -29.29,38.934 -1.69,1.824 -6.92,3.177 -7.41,0.742 -2.42,-11.928 -8.16,-49.131 -7.05,-72.306 1.09,-22.687 3.67,-46.375 13.72,-66.743 14.03,-28.428 53.52,-75.211 70.45,-103.824 12.68,-21.418 27.69,-50.243 31.15,-67.856 2.52,-12.828 -5.44,-30.405 -10.38,-37.821 -3.78,-5.659 -13.35,-3.359 -19.29,-6.675 -7.41,-4.14 -16.05,-13.336 -25.21,-18.169 -9.32,-4.916 -19.92,-9.714 -30.71,-11.329 -13.17,-1.971 -34.59,1.507 -48.32,-0.498 -11.85,-1.732 -22.23,-9.512 -34.04,-11.533 -14.01,-2.397 -35.92,-3.563 -50.01,-2.851 -11.73,0.593 -23.6,6.56 -34.52,7.121 -10.38,0.533 -20.59,-3.177 -30.98,-3.759 -11.98,-0.671 -28.91,-2.533 -40.89,-0.268 -11.11,2.102 -20.55,9.439 -30.95,13.86 -10.53,4.471 -22.43,6.911 -32.18,12.965 -9.76,6.055 -20.27,13.658 -26.33,23.361 -6.06,9.702 -8.68,22.84 -10.01,34.855 -1.36,12.298 -1.27,26.322 1.85,38.933 3.28,13.225 14.11,26.165 17.8,40.417 5.19,20.085 11.68,55.373 13.35,80.093 1.53,22.717 -0.5,46.844 -3.34,68.226 -2.71,20.36 -7.17,41.283 -13.72,60.07 -6.42,18.425 -19.84,42.765 -25.58,52.653 -1.87,3.206 -6.86,7.663 -8.9,6.674 -2.04,-0.989 -3.24,-8.261 -3.34,-12.607 -0.62,-25.77 -0.31,-106.11 -0.37,-142.015 -0.04,-24.473 1.36,-60.44 0,-73.418 -0.32,-3.081 -6.27,-6.907 -8.16,-4.45 -5.31,6.922 -16.86,30.161 -23.73,45.979 -16.07,36.987 -52.79,115.696 -72.72,175.945 -21.75,65.755 -45.88,167.012 -57.8,218.584 -6.9,29.838 -11.29,60.317 -13.72,90.844 -3.09,38.81 -1.79,103.08 -4.82,142.02 -2.39,30.75 -7.23,65.5 -13.35,91.58 -5.25,22.39 -12.21,44.79 -23.36,64.89 -12.61,22.75 -36.42,49.06 -52.28,71.57 -14.72,20.87 -31.76,41.11 -42.91,63.46 -11.11,22.26 -19.21,46.25 -24,70.65 -5.04,25.65 -6.12,57.27 -6.2,83.21 -0.08,24.21 5.05,57.49 5.72,72.4 0.26,5.72 1.19,12.13 -1.67,17.08 -8.55,14.81 -34.9,47.71 -49.6,71.78 -14.28,23.41 -31.77,57.25 -38.56,72.68 -2.69,6.11 -7.97,23.29 -2.21,19.92 z"
   style="fill:#fde1bc" />
        <path
   id="bird_lvl_2"
   d="m 2215.5,1458.95 c -10.8,21.6 -29.11,90.11 -54.68,122 -25.15,31.39 -80.58,55.02 -98.72,69.36 -5.11,4.04 -3.97,14.58 -10.13,16.71 -22.69,7.85 -92.3,29.62 -126.05,30.37 -26.89,0.61 -62.44,-13.58 -76.45,-25.81 -12.1,-10.57 -13.35,-53.24 -13.75,-69.3 -0.67,-26.92 3.12,-57.44 9.7,-92.2 6.28,-33.17 19.54,-65.17 35.95,-94.67 16.7,-30.04 47.92,-58.31 64.29,-85.56 14.59,-24.3 23.05,-60.31 28.66,-88.09 7.51,-37.21 12.39,-86.76 16.4,-135.17 4.05,-48.86 8.35,-110.282 13.16,-147.83 3.35,-26.13 9.38,-51.883 15.7,-77.458 10.63,-43.032 27.98,-121.727 48.09,-180.735 20.42,-59.907 60.24,-147.912 74.42,-178.71 1.71,-3.708 9.21,-9.902 10.63,-6.075 3.38,9.113 8.83,40.264 9.62,60.751 1.1,28.52 -2.95,83.787 -3.04,110.365 -0.05,16.391 1.18,38.982 2.53,49.108 0.57,4.264 3.04,12.487 5.57,11.644 2.53,-0.844 6.67,-10.998 9.62,-16.707 7.85,-15.188 28.83,-48.026 37.47,-74.42 9.19,-28.098 16.25,-62.26 17.71,-94.165 1.52,-33.076 -7.42,-82.858 -8.6,-104.29 -0.45,-8.103 -0.68,-20.419 1.52,-24.3 1.91,-3.392 8.08,-0.57 11.64,1.012 6.08,2.7 17.8,13.416 24.81,15.188 5.75,1.456 11.29,-4.204 17.21,-4.556 7.09,-0.422 19.41,1.35 25.31,2.025 3.42,0.391 8.74,5.172 10.13,2.025 5.23,-11.813 11.47,-56.617 21.26,-72.902 7.72,-12.837 22.82,-21.658 37.47,-24.807 15.69,-3.375 39.31,-0.675 56.7,4.557 17.38,5.231 40.67,10.378 47.59,26.832 6.91,16.453 -6.25,51.048 -6.08,71.889 0.14,17.875 -0.51,45.394 7.09,53.157 7.59,7.763 30.71,-6.75 38.47,-6.581 3.7,0.08 9.35,4.11 8.1,7.594 -5.23,14.597 -27.7,52.689 -39.48,79.989 -13.34,30.882 -32.07,77.542 -40.51,105.302 -6.01,19.802 -8.94,46.576 -10.12,61.258 -0.72,8.972 -4.05,28.097 3.04,26.832 7.08,-1.266 32.31,-25.567 39.49,-34.426 3.99,-4.939 0.67,-13.838 3.54,-18.732 2.87,-4.894 9.45,-6.834 13.67,-10.631 4.17,-3.753 7.97,-7.91 11.64,-12.151 5.99,-6.919 17,-18.964 24.3,-29.363 8.95,-12.741 19.91,-31.187 29.37,-47.082 10.04,-16.875 20.5,-46.878 28.6,-56.244 3.88,-4.496 23.26,-5.596 27.67,-1.61 7,6.328 9.55,16.63 13.52,27.345 2.81,7.599 4.2,34.981 2.6,38.609 -1.27,2.884 -7,-0.19 -9.11,-2.531 -4.64,-5.147 -12.15,-27.001 -18.73,-28.351 -6.59,-1.35 -18.65,11.054 -20.76,20.251 -2.11,9.197 4.49,23.536 8.1,34.932 6.33,19.997 25.65,60.16 29.87,85.052 3.59,21.183 -0.22,43.252 -4.56,64.295 -6.16,29.869 -24.05,90.705 -32.4,114.921 -3.82,11.081 -14.68,23.288 -17.72,30.376 -1.59,3.725 0.73,8.289 -0.5,12.15 -7.34,22.95 -33.92,98.048 -43.54,125.548 -4.62,13.21 -7.49,27.21 -14.18,39.49 -8.86,16.29 -27.51,37.88 -38.98,58.22 -11.56,20.51 -18.7,44 -30.38,64.8 -12.4,22.11 -26.68,47.21 -44.04,67.84 -20.17,23.97 -51.89,55.95 -76.95,75.94 -22.31,17.8 -57.97,35.69 -73.41,44.05 -5.91,3.2 -14.34,3.79 -19.24,6.07 -3.82,1.78 -8.24,3.82 -10.12,7.6 z"
   style="fill:#145067" />
        <path
   id="Bird_lvl_3"
   d="m 2160.44,579.148 c 2.68,-7.121 -14.86,-24.256 -18.91,-29.572 -1.68,-2.212 -3.62,-3.094 -5.39,-2.322 -1.77,0.772 -3.71,4.192 -5.57,7.947 -9.5,19.175 -53.27,107.873 -66.41,144.167 -20.84,57.545 -44.55,140.825 -62.33,223.083 -18.47,85.499 -24.82,191.509 -32.73,256.129 -4.73,38.59 -2.09,80.87 -10.26,110.74 -6.5,23.79 -18.21,49.21 -34.64,67.6 -31.5,35.24 -66.08,80.34 -82.35,118.18 -10.71,24.93 -20.48,60.91 -21.88,87.17 -1.37,25.86 0.01,59.79 0.89,79.72 0.63,14.04 9.49,49.74 3.52,62.46 -6.69,14.26 -30.9,37.96 -47.27,64.81 -21.26,34.86 -34.92,63.72 -40.71,74.12 -5.96,10.72 -11.32,34.44 -9.94,35.17 2.72,1.46 30.24,-20.14 35.45,-24.16 10.15,-7.82 22.3,-13.67 41.53,-29.52 36.77,-30.32 73.99,-67.1 100.91,-85.93 26.49,-18.51 77.8,-40.57 91.15,-49.56 3.59,-2.41 -0.11,-7.51 -4.4,-7.97 -18.61,-2.03 -80.88,2.21 -104.8,-1.14 -14.23,-2 -33.92,-5.44 -38.73,-18.99 -7.34,-20.69 -10.06,-71.06 -5.31,-105.17 4.75,-34.11 18.09,-68.18 33.79,-99.48 20,-39.87 66.51,-102.02 86.19,-139.73 14.23,-27.27 15.11,-70.12 20.62,-100.38 6.77,-37.14 7.92,-70.06 10.68,-115.5 2.78,-45.82 5.03,-101.646 9.53,-138.983 3.48,-28.963 19.39,-63.815 26.76,-92.042 10.57,-40.5 26.68,-116.689 38.2,-154.722 7.23,-23.867 22.42,-54.174 30.9,-73.475 7.01,-15.939 15.95,-34.742 26.2,-45.184 9.2,-9.37 32.64,-10.345 35.31,-17.466 z"
   style="fill:#573b44" />
        <path
   id="Bird_lvl_4"
   d="m 2484.58,1413.85 c 1.07,-1.39 4.81,-1.89 5.27,-0.2 1.35,4.9 0.35,20.28 2.79,29.57 2.43,9.26 8.74,19.6 11.85,26.17 2.11,4.49 6.35,8.3 6.76,13.24 0.68,8.08 -2.3,27.54 -2.68,35.24 -0.18,3.64 -1.69,7.95 0.39,10.95 3.82,5.49 20.03,17.07 22.5,21.99 1.61,3.21 -4.08,7.74 -7.67,7.57 -4.77,-0.24 -15.22,-4 -21,-8.96 -9.32,-8.01 -27.42,-27.47 -34.93,-39.12 -5.86,-9.07 -3.5,-32.23 -10.16,-30.75 -6.65,1.47 -23.04,27.37 -29.76,39.61 -5.68,10.36 -8.49,22.21 -10.55,33.84 -2.17,12.26 -1.64,31.54 -2.49,39.72 -0.33,3.22 -1.13,6.46 -2.58,9.35 -2.11,4.2 -7.64,11.67 -10.06,15.83 -1.71,2.94 -4.22,5.77 -4.48,9.16 -0.69,9.1 2.34,37.84 0.3,45.48 -1.08,4.05 -9.28,3.03 -12.54,0.4 -4.78,-3.85 -11.8,-15.03 -16.13,-23.49 -5,-9.79 -12.27,-22.71 -13.93,-35.23 -1.76,-13.28 -0.2,-32.57 3.39,-44.4 3.1,-10.26 11.08,-18.47 18.11,-26.57 10.87,-12.53 32.2,-32.07 47.08,-48.58 14.68,-16.28 32.12,-36.99 42.2,-50.46 7.09,-9.46 14.39,-25.26 18.32,-30.36 z"
   style="fill:#dfcaa2" />
        <g
   id="Bird_lvl_5">
            <g
   transform="translate(-0.926985,-1.3905)"
   id="g17">
                <path
   d="m 2444.18,891.761 c 11.31,-2.929 18.29,14.647 21.43,24.988 3.9,12.89 7.93,24.812 14.35,79.397 4.52,38.474 5.1,88.304 -2.2,123.544 -7.19,34.73 -22.91,74.05 -17.68,78.1 6.36,4.92 29.1,-32.99 36.19,-48.23 7.68,-16.5 24.47,-67.36 25.99,-123.35 0.69,-25.33 -2.25,-109.527 -9.16,-133.832 -7.31,-25.725 -17.04,-42.315 -22.42,-46.45 -6.09,-4.684 -19.6,-6.361 -31.48,-4.357 -12.9,2.176 -24.75,7.409 -35.14,20.367 -7.14,8.904 -13.22,23.554 -9.42,27.589 3.8,4.034 17.43,5.368 29.54,2.234 z"
   style="fill:#270204"
   id="path17" />
            </g>
            <path
   d="m 2432.22,825.356 c 9.93,3.078 36.84,-23.703 58.21,-21.171 17.23,2.04 25.86,40.133 30.61,66.219 3.64,20.029 6.48,60.032 7.73,102.328 0.67,22.765 -2.65,45.488 -2.73,55.268 -0.19,23.21 -10.88,76.47 -5.56,74.49 5.31,-1.97 31.42,-55.01 38.07,-84.31 7.87,-34.677 12.06,-84.768 7.9,-126.969 -4.25,-43.159 -20.07,-107.783 -33.42,-131.983 -7.79,-14.147 -28.29,-20.673 -43.77,-16.061 -16.91,5.037 -50.16,31.539 -56.64,43.86 -5.78,10.993 -10.59,35.173 -0.4,38.329 z"
   style="fill:#270204"
   id="path18" />
            <path
   d="m 2509,706.188 c 3.41,-6.099 24.66,-37.692 28.7,-36.98 8.8,1.552 33.28,16.361 47.46,41.36 8.25,14.532 35.1,72.905 26.05,143.781 -5.34,41.8 -23.94,90.688 -25.9,85.058 -4.82,-13.815 0.72,-39.502 -5.35,-101.54 -3.52,-35.945 -25.43,-90.033 -35.28,-106.844 -14.35,-24.5 -38.15,-20.411 -35.68,-24.835 z"
   style="fill:#270204"
   id="path19" />
            <path
   d="m 2558.07,640.37 c -1.11,-6.86 2.79,-22.053 9.7,-29.04 6.91,-6.986 31.25,-13.018 36.33,-6.658 8.34,10.419 23.52,34.676 28.4,57.343 5.52,25.643 0.95,69.324 -1.1,88.283 -0.92,8.478 -7.95,33.8 -12.27,26.447 -4.43,-7.543 -5.93,-46.399 -13.06,-66.979 -6.98,-20.111 -20.79,-46.169 -29.77,-56.499 -8.64,-9.924 -17.11,-6.038 -18.23,-12.897 z"
   style="fill:#270204"
   id="path20" />
            <path
   d="m 2586.37,574.307 c 12.25,-26.123 47.54,-102.316 58.77,-116.036 7.59,-9.265 17.05,19.634 15.8,54.069 -2.35,64.609 -17.32,106.006 -23.69,122.415 -3.88,9.985 -10.16,-41.681 -19.9,-52.55 -17.77,-19.828 -35.81,2.399 -30.98,-7.898 z"
   style="fill:#270204"
   id="path21" />
            <path
   d="m 2560.37,422.687 c -17.33,-4.451 -30.97,15.167 -37.21,23.162 -11.04,14.147 -32.32,45.34 -45.69,73.94 -20.86,44.64 -34.39,95.821 -42.4,117.807 -3.52,9.681 4.08,20.757 6.65,30.186 2.43,8.941 3.99,34.352 8.73,26.389 10.5,-17.656 36.96,-95.019 54.3,-132.325 14.63,-31.482 40.47,-68.314 49.74,-91.507 5.94,-14.861 18.04,-44.53 5.88,-47.652 z"
   style="fill:#270204"
   id="path22" />
            <path
   d="m 2497.04,437.615 c 3.49,3.57 1.38,16.545 -2.28,30.984 -5.33,21.016 -53.62,107.249 -58.63,112.238 -1.9,1.896 -5.31,-0.777 -7.9,-1.83 -3.79,-1.542 -6.53,-2.569 -5.92,-5.004 3.85,-15.367 20.81,-59.284 33.26,-82.015 10.96,-19.989 37.41,-58.515 41.47,-54.373 z"
   style="fill:#270204"
   id="path23" />
            <path
   d="m 2287.62,499.246 c 2.17,-3.607 -2.77,-52.159 -0.75,-64.833 0.89,-5.61 7.6,-12.696 12.83,-11.211 6.64,1.884 15.89,24.065 15.89,37.704 0,13.261 1.34,43.639 -2.68,66.085 -2.91,16.277 -6.38,29.044 -11.06,34.241 -3.99,4.418 -11.35,2.379 -14.71,6.208 -3.36,3.828 -3.01,11.419 -5.46,16.763 -4.25,9.316 -11.65,27.141 -20.09,39.128 -3.16,4.481 -7.99,0.988 -13.38,8.213 -13.83,18.512 -29.55,52.577 -32.17,50.262 -3.63,-3.218 16.9,-53.654 21.76,-81.276 4.99,-28.368 7.59,-59.169 8.18,-88.932 0.59,-30.137 -6.33,-76.144 -4.61,-91.887 0.55,-5.017 11.56,-6.338 14.92,-2.575 5.41,6.058 12.49,25.622 17.56,38.919 5.22,13.685 11.6,46.798 13.77,43.191 z"
   style="fill:#270204"
   id="path24" />
            <path
   d="m 2159.53,714.632 c -2.47,-2.957 -8.84,-5.886 -11.2,-2.847 -13.24,16.975 -47.25,68.703 -68.21,104.701 -21.12,36.285 -46.5,76.319 -58.52,113.008 -11.2,34.205 -15.17,97.886 -13.57,107.126 1.59,9.23 16.75,-38.694 23.16,-51.738 4.5,-9.161 9.7,-18.55 15.28,-26.531 5.37,-7.669 13.48,-13.292 18.23,-21.358 6.58,-11.186 13.4,-30.886 21.26,-45.754 6.9,-13.048 8.33,-30.483 18.01,-47.097 4.61,-7.919 17.97,-16.569 21.85,-22.755 9.8,-15.659 25.51,-30.331 32.14,-45.149 6.05,-13.516 7.38,-33.492 7.64,-43.76 0.16,-6.282 -3.19,-14.397 -6.07,-17.846 z"
   style="fill:#270204"
   id="path25" />
            <path
   d="m 2036,881.843 c 2.49,-18.827 15.26,-94.806 28,-132.894 11.33,-33.886 33.14,-72.261 48.41,-95.636 11.32,-17.33 32.99,-39.512 43.19,-44.615 6.81,-3.403 15.55,6.809 18.04,14.002 2.88,8.345 1.3,28.635 -0.72,36.071 -1.24,4.581 -9.01,5.972 -11.39,8.543 -1.68,1.824 -1.27,4.959 -2.85,6.882 -2.29,2.808 -7.89,6.071 -10.91,9.967 -6.92,8.939 -20.84,30.771 -30.61,43.665 -8.82,11.641 -22.23,22.743 -28.01,33.699 -5.08,9.648 -4.94,25.313 -6.64,32.036 -0.74,2.921 -1.86,5.82 -3.56,8.306 -2.84,4.149 -10.74,11.329 -13.47,16.589 -2.34,4.513 -0.55,10.466 -2.91,14.974 -2.54,4.868 -10.08,9.492 -12.34,14.238 -2.04,4.302 0.65,9.843 -1.18,14.239 -2.38,5.695 -14.1,27.808 -13.05,19.934 z"
   style="fill:#270204"
   id="path26" />
            <path
   d="m 2091.14,634.676 c 5.26,-4.652 23.83,-29.206 32.09,-35.882 4.66,-3.763 12.81,-1.962 17.47,-4.177 4.17,-1.986 6.69,-6.404 10.44,-9.112 5.72,-4.145 19.71,-11.708 23.92,-15.758 2.08,-1.998 1.57,-5.672 1.33,-8.543 -0.57,-6.643 1.68,-24.038 0.19,-38.729 -1.56,-15.399 -6.9,-28.096 -8.55,-34.363 -0.93,-3.551 -8.83,-3.334 -11.01,-0.379 -5.98,8.1 -17.08,32.408 -24.87,48.981 -10.88,23.161 -33.6,73.661 -40.43,89.988 -1.03,2.458 -2.57,9.74 -0.58,7.974 z"
   style="fill:#270204"
   id="path27" />
            <path
   d="m 2206.44,1453.86 c -8.49,9.64 -33.84,38.95 -53.95,55.88 -24.76,20.85 -77.36,54.43 -93.02,69.06 -4.58,4.27 -3.01,14.99 -0.95,18.75 2.05,3.76 9.81,0.77 13.29,3.79 3.68,3.21 4.94,13.33 8.78,15.43 3.83,2.1 10.52,0.25 14.24,-2.85 13.56,-11.31 48.21,-40.28 67.15,-65.02 19.54,-25.51 43.04,-73.14 51.17,-88.77 3.74,-7.2 0.38,-14.32 -6.71,-6.27 z"
   style="fill:#270204"
   id="path28" />
            <path
   d="m 2070.49,1611.66 c -4,-7.29 -28.35,-10.91 -39.64,-7.9 -11.29,3.02 -25.79,15.83 -28.09,25.98 -2.31,10.15 5.59,31.97 14.27,34.93 8.68,2.96 28.91,-8.33 37.82,-17.16 8.91,-8.84 19.64,-28.56 15.64,-35.85 z"
   style="fill:#270204"
   id="path29" />
            <path
   d="m 1986.47,1643.05 c -5.73,-1.01 -18.7,5.48 -26.58,10.45 -7.88,4.96 -18.1,14.33 -20.69,19.36 -1.83,3.55 1.21,10.05 5.13,10.82 4.96,0.98 17.12,-1.29 24.68,-4.93 8.32,-4.02 22.33,-13.23 25.25,-19.18 2.67,-5.47 -2.06,-15.5 -7.79,-16.52 z"
   style="fill:#270204"
   id="path30" />
            <path
   d="m 1892.59,1677.01 c 7.17,-1.24 17.82,1.65 24.98,-0.78 3.74,-1.27 9.2,-2.49 11.85,0.45 2.73,3.04 8.34,12.96 4.55,17.77 -6.53,8.3 -29.8,20.53 -43.74,32.05 -22.19,18.34 -67.85,60.48 -89.43,77.99 -12.51,10.15 -31.14,22.13 -40.04,27.07 -3.96,2.2 -22.77,11.14 -22.21,6.64 2.04,-16.49 32.27,-60.23 49.32,-86.06 6.39,-9.68 55.64,-85.87 63.18,-89.83 7.45,-3.9 14.84,7.62 20.95,9.64 4.46,1.47 15.96,5.85 20.59,5.06 z"
   style="fill:#270204"
   id="path31" />
        </g>
    </g></g></svg>
